# xmcd CD database file
#
# Track frame offsets:
#	150
#	14205
#	30575
#	49778
#	64192
#	77251
#	96458
#	110858
#	125296
#	144039
#	164786
#	191785
#
# Disc length: 4125 seconds
#
# Revision: 0
# Processed by: cddbd v1.5.1PL2 Copyright (c) Steve Scherf et al.
# Submitted via: CDex 1.51
#
DISCID=a9101b0c
DTITLE=Brasa - Sem nome
DYEAR=1900
DGENRE=Country
TTITLE0=Dia de rei
TTITLE1=Quando voçê esta aqui
TTITLE2=Nuvens no ceu
TTITLE3=Calça rasgada
TTITLE4=O que eu faço
TTITLE5=Mais uma vez
TTITLE6=Meu cais
TTITLE7=Não pra onde eu vou
TTITLE8=Não vou mais chorar
TTITLE9=Todos os dias
TTITLE10=Todos os dias
TTITLE11=Uma pista uma carta
EXTD=
EXTT0=
EXTT1=
EXTT2=
EXTT3=
EXTT4=
EXTT5=
EXTT6=
EXTT7=
EXTT8=
EXTT9=
EXTT10=
EXTT11=
PLAYORDER=
